<svg width="222" height="62" viewBox="0 0 222 62" fill="none" xmlns="http://www.w3.org/2000/svg">
<path d="M0.636364 1.45454H7.36364L23.1818 40.0909H23.7273L39.5455 1.45454H46.2727V48H41V12.6364H40.5455L26 48H20.9091L6.36364 12.6364H5.90909V48H0.636364V1.45454ZM60.3011 61.0909C59.392 61.0909 58.5814 61.0152 57.8693 60.8636C57.1572 60.7273 56.6648 60.5909 56.392 60.4545L57.7557 55.7273C59.0587 56.0606 60.2102 56.1818 61.2102 56.0909C62.2102 56 63.0966 55.553 63.8693 54.75C64.6572 53.9621 65.3769 52.6818 66.0284 50.9091L67.0284 48.1818L54.1193 13.0909H59.9375L69.5739 40.9091H69.9375L79.5739 13.0909H85.392L70.5739 53.0909C69.9072 54.8939 69.0814 56.3864 68.0966 57.5682C67.1117 58.7652 65.9678 59.6515 64.6648 60.2273C63.3769 60.803 61.9223 61.0909 60.3011 61.0909ZM136.653 13.0909C136.381 10.7879 135.275 9 133.335 7.72727C131.396 6.45454 129.017 5.81818 126.199 5.81818C124.138 5.81818 122.335 6.15151 120.79 6.81818C119.259 7.48485 118.063 8.40151 117.199 9.56818C116.35 10.7348 115.926 12.0606 115.926 13.5455C115.926 14.7879 116.222 15.8561 116.812 16.75C117.419 17.6288 118.191 18.3636 119.131 18.9545C120.07 19.5303 121.055 20.0076 122.085 20.3864C123.116 20.75 124.062 21.0455 124.926 21.2727L129.653 22.5455C130.866 22.8636 132.214 23.303 133.699 23.8636C135.199 24.4242 136.631 25.1894 137.994 26.1591C139.373 27.1136 140.509 28.3409 141.403 29.8409C142.297 31.3409 142.744 33.1818 142.744 35.3636C142.744 37.8788 142.085 40.1515 140.767 42.1818C139.464 44.2121 137.555 45.8258 135.04 47.0227C132.54 48.2197 129.502 48.8182 125.926 48.8182C122.593 48.8182 119.706 48.2803 117.267 47.2045C114.843 46.1288 112.934 44.6288 111.54 42.7045C110.161 40.7803 109.381 38.5455 109.199 36H115.017C115.169 37.7576 115.759 39.2121 116.79 40.3636C117.835 41.5 119.153 42.3485 120.744 42.9091C122.35 43.4545 124.078 43.7273 125.926 43.7273C128.078 43.7273 130.009 43.3788 131.722 42.6818C133.434 41.9697 134.79 40.9848 135.79 39.7273C136.79 38.4545 137.29 36.9697 137.29 35.2727C137.29 33.7273 136.858 32.4697 135.994 31.5C135.131 30.5303 133.994 29.7424 132.585 29.1364C131.176 28.5303 129.653 28 128.017 27.5455L122.29 25.9091C118.653 24.8636 115.775 23.3712 113.653 21.4318C111.532 19.4924 110.472 16.9545 110.472 13.8182C110.472 11.2121 111.176 8.93939 112.585 7C114.009 5.04545 115.919 3.5303 118.312 2.45454C120.722 1.36363 123.411 0.81818 126.381 0.81818C129.381 0.81818 132.047 1.35606 134.381 2.43182C136.714 3.49242 138.563 4.94697 139.926 6.79545C141.305 8.64394 142.032 10.7424 142.108 13.0909H136.653ZM156.284 35.2727L156.193 28.6364H157.284L172.557 13.0909H179.193L162.92 29.5455H162.466L156.284 35.2727ZM151.284 48V1.45454H156.648V48H151.284ZM173.466 48L159.83 30.7273L163.648 27L180.284 48H173.466ZM186.097 48V13.0909H191.46V48H186.097ZM188.824 7.27273C187.778 7.27273 186.877 6.91667 186.119 6.20454C185.377 5.49242 185.006 4.63636 185.006 3.63636C185.006 2.63636 185.377 1.7803 186.119 1.06818C186.877 0.35606 187.778 0 188.824 0C189.869 0 190.763 0.35606 191.506 1.06818C192.263 1.7803 192.642 2.63636 192.642 3.63636C192.642 4.63636 192.263 5.49242 191.506 6.20454C190.763 6.91667 189.869 7.27273 188.824 7.27273ZM206.648 1.45454V48H201.284V1.45454H206.648ZM221.835 1.45454V48H216.472V1.45454H221.835Z" fill="black"/>
</svg>
